<svg id="svg" fill="#000000" stroke="#000000" width="200px" height="200px" version="1.1" viewBox="144 144 512 512" xmlns="http://www.w3.org/2000/svg">
    <g id="IconSvg_bgCarrier" stroke-width="0"></g>
    <g id="IconSvg_tracerCarrier" stroke-linecap="round" stroke-linejoin="round" stroke="#CCCCCC"></g>
     <g id="IconSvg_iconCarrier">
      <path xmlns="http://www.w3.org/2000/svg" d="m189.89 592.83 36.527-67.203h-0.003907c0.95703 2.5938 3.2109 4.4883 5.9297 4.9805 2.8477 0.55078 5.6914 1.0234 8.6172 1.4219l-37.156 68.391c-1.4023 2.5273-4.0664 4.1016-6.957 4.1094-1.3242-0.003906-2.625-0.32812-3.7969-0.94531-3.8164-2.1172-5.2266-6.9062-3.1602-10.754zm51.629-95.035c6.4844-11.781 13.836-24.352 22.059-37.398 0.23438-0.39453 0.47266-0.78906 0.70703-1.1055v0.003906c16.266-25.609 33.84-50.363 52.656-74.164-0.20703-0.53125-0.33984-1.0898-0.39453-1.6602l-2.1367-66.965c-0.089844-2.0977 0.66016-4.1484 2.0859-5.6914 1.4258-1.543 3.4062-2.4531 5.5039-2.5312 2.1289-0.15234 4.2266 0.58594 5.7852 2.0391 1.5625 1.457 2.4453 3.4961 2.4375 5.6289l1.582 50.68c69.656-84.199 163.19-167.77 263.36-202.8-78.031 6.5625-238.53 34.156-310.48 149.19-53.609 85.863-51.152 159.71-46.645 191.18zm134.56-55.898-100.09 28.625c-7.668 12.176-14.629 23.957-20.555 34.867l-6.4023 11.859c84.754 11.305 188.57-12.016 220.66-114.8 24.824-79.379 102.46-179.95 141.36-227.15-67.363 21.109-132.91 66.652-190.07 120.18l54.004-16.367c4.1719-1.2031 8.5352 1.168 9.793 5.3281 1.2539 4.1562-1.0664 8.5469-5.207 9.8555l-83.098 25.062c-39.598 40.332-75.48 84.152-107.21 130.93l82.547-23.637c4.2148-1.1797 8.5859 1.2812 9.7656 5.4922 1.1758 4.2148-1.2812 8.5859-5.4961 9.7656zm105.39 178.45h-284.62c-2.1133-0.023437-4.1445 0.80078-5.6445 2.2852-1.4961 1.4883-2.3438 3.5078-2.3438 5.6211 0 2.1094 0.84766 4.1328 2.3438 5.6172 1.5 1.4844 3.5312 2.3086 5.6445 2.2891h284.62c2.1133 0.019532 4.1445-0.80469 5.6445-2.2891s2.3438-3.5078 2.3438-5.6172c0-2.1133-0.84375-4.1328-2.3438-5.6211-1.5-1.4844-3.5312-2.3086-5.6445-2.2852z"></path>

      </g>
      </svg>